<mxfile host="app.diagrams.net" modified="2020-09-15T03:41:14.509Z" agent="5.0 (Windows NT 10.0; Win64; x64) AppleWebKit/537.36 (KHTML, like Gecko) Chrome/85.0.4183.102 Safari/537.36" etag="CExScc5qYpk29rVT7edG" version="13.7.1" type="github" pages="2">
  <diagram id="Gn3W8NAmpp5CMkqMtvBZ" name="Flux">
    <mxGraphModel dx="1185" dy="662" grid="1" gridSize="10" guides="1" tooltips="1" connect="1" arrows="1" fold="1" page="1" pageScale="1" pageWidth="850" pageHeight="1100" math="0" shadow="0">
      <root>
        <mxCell id="0" />
        <mxCell id="1" parent="0" />
        <mxCell id="mDeWALazk-HjdPuWJcNi-10" style="edgeStyle=orthogonalEdgeStyle;rounded=0;orthogonalLoop=1;jettySize=auto;html=1;exitX=0.5;exitY=1;exitDx=0;exitDy=0;exitPerimeter=0;entryX=0.5;entryY=0;entryDx=0;entryDy=0;" edge="1" parent="1" source="mDeWALazk-HjdPuWJcNi-2" target="mDeWALazk-HjdPuWJcNi-3">
          <mxGeometry relative="1" as="geometry" />
        </mxCell>
        <mxCell id="mDeWALazk-HjdPuWJcNi-2" value="Start" style="strokeWidth=2;html=1;shape=mxgraph.flowchart.start_1;whiteSpace=wrap;" vertex="1" parent="1">
          <mxGeometry x="375" y="30" width="100" height="60" as="geometry" />
        </mxCell>
        <mxCell id="mDeWALazk-HjdPuWJcNi-13" style="edgeStyle=orthogonalEdgeStyle;rounded=0;orthogonalLoop=1;jettySize=auto;html=1;exitX=0.5;exitY=1;exitDx=0;exitDy=0;entryX=0.521;entryY=0.127;entryDx=0;entryDy=0;entryPerimeter=0;" edge="1" parent="1" source="mDeWALazk-HjdPuWJcNi-3" target="mDeWALazk-HjdPuWJcNi-4">
          <mxGeometry relative="1" as="geometry" />
        </mxCell>
        <mxCell id="mDeWALazk-HjdPuWJcNi-3" value="i_ms, o_kmh" style="shape=internalStorage;whiteSpace=wrap;html=1;dx=15;dy=15;rounded=1;arcSize=8;strokeWidth=2;align=center;" vertex="1" parent="1">
          <mxGeometry x="355" y="130" width="140" height="70" as="geometry" />
        </mxCell>
        <mxCell id="mDeWALazk-HjdPuWJcNi-14" style="edgeStyle=orthogonalEdgeStyle;rounded=0;orthogonalLoop=1;jettySize=auto;html=1;exitX=0.5;exitY=1;exitDx=0;exitDy=0;entryX=0.5;entryY=0;entryDx=0;entryDy=0;" edge="1" parent="1" source="mDeWALazk-HjdPuWJcNi-4" target="mDeWALazk-HjdPuWJcNi-5">
          <mxGeometry relative="1" as="geometry" />
        </mxCell>
        <mxCell id="mDeWALazk-HjdPuWJcNi-4" value="i_ms" style="html=1;strokeWidth=2;shape=manualInput;whiteSpace=wrap;rounded=1;size=26;arcSize=11;align=center;" vertex="1" parent="1">
          <mxGeometry x="368" y="230" width="115" height="70" as="geometry" />
        </mxCell>
        <mxCell id="mDeWALazk-HjdPuWJcNi-15" style="edgeStyle=orthogonalEdgeStyle;rounded=0;orthogonalLoop=1;jettySize=auto;html=1;exitX=0.5;exitY=1;exitDx=0;exitDy=0;entryX=0.5;entryY=0;entryDx=0;entryDy=0;entryPerimeter=0;" edge="1" parent="1" source="mDeWALazk-HjdPuWJcNi-5" target="mDeWALazk-HjdPuWJcNi-6">
          <mxGeometry relative="1" as="geometry" />
        </mxCell>
        <mxCell id="mDeWALazk-HjdPuWJcNi-5" value="o_kmh = i_ms * 3.6" style="rounded=1;whiteSpace=wrap;html=1;absoluteArcSize=1;arcSize=14;strokeWidth=2;align=center;" vertex="1" parent="1">
          <mxGeometry x="355.5" y="350" width="140" height="70" as="geometry" />
        </mxCell>
        <mxCell id="mDeWALazk-HjdPuWJcNi-16" style="edgeStyle=orthogonalEdgeStyle;rounded=0;orthogonalLoop=1;jettySize=auto;html=1;entryX=0.5;entryY=0;entryDx=0;entryDy=0;entryPerimeter=0;" edge="1" parent="1" source="mDeWALazk-HjdPuWJcNi-6" target="mDeWALazk-HjdPuWJcNi-7">
          <mxGeometry relative="1" as="geometry" />
        </mxCell>
        <mxCell id="mDeWALazk-HjdPuWJcNi-6" value="o_kmh" style="strokeWidth=2;html=1;shape=mxgraph.flowchart.document2;whiteSpace=wrap;size=0.25;align=center;" vertex="1" parent="1">
          <mxGeometry x="360.5" y="460" width="130" height="60" as="geometry" />
        </mxCell>
        <mxCell id="mDeWALazk-HjdPuWJcNi-7" value="End" style="strokeWidth=2;html=1;shape=mxgraph.flowchart.start_1;whiteSpace=wrap;align=center;" vertex="1" parent="1">
          <mxGeometry x="375.5" y="570" width="100" height="60" as="geometry" />
        </mxCell>
      </root>
    </mxGraphModel>
  </diagram>
  <diagram id="vcQqc78W-bbyvsC5Jr0C" name="Table Test">
    <mxGraphModel dx="1422" dy="794" grid="1" gridSize="10" guides="1" tooltips="1" connect="1" arrows="1" fold="1" page="1" pageScale="1" pageWidth="850" pageHeight="1100" math="0" shadow="0">
      <root>
        <mxCell id="P1q2YH49xZLaBKJA2wRL-0" />
        <mxCell id="P1q2YH49xZLaBKJA2wRL-1" parent="P1q2YH49xZLaBKJA2wRL-0" />
        <mxCell id="5mCAxWr-95BhsiWNWuK7-0" value="" style="shape=table;html=1;whiteSpace=wrap;startSize=0;container=1;collapsible=0;childLayout=tableLayout;" vertex="1" parent="P1q2YH49xZLaBKJA2wRL-1">
          <mxGeometry x="60" y="210" width="730" height="200" as="geometry" />
        </mxCell>
        <mxCell id="5mCAxWr-95BhsiWNWuK7-1" value="" style="shape=partialRectangle;html=1;whiteSpace=wrap;collapsible=0;dropTarget=0;pointerEvents=0;fillColor=none;top=0;left=0;bottom=0;right=0;points=[[0,0.5],[1,0.5]];portConstraint=eastwest;" vertex="1" parent="5mCAxWr-95BhsiWNWuK7-0">
          <mxGeometry width="730" height="50" as="geometry" />
        </mxCell>
        <mxCell id="5mCAxWr-95BhsiWNWuK7-2" value="Process" style="shape=partialRectangle;html=1;whiteSpace=wrap;connectable=0;overflow=hidden;fillColor=none;top=0;left=0;bottom=0;right=0;" vertex="1" parent="5mCAxWr-95BhsiWNWuK7-1">
          <mxGeometry width="183" height="50" as="geometry" />
        </mxCell>
        <mxCell id="5mCAxWr-95BhsiWNWuK7-3" value="i_ms" style="shape=partialRectangle;html=1;whiteSpace=wrap;connectable=0;overflow=hidden;fillColor=none;top=0;left=0;bottom=0;right=0;" vertex="1" parent="5mCAxWr-95BhsiWNWuK7-1">
          <mxGeometry x="183" width="182" height="50" as="geometry" />
        </mxCell>
        <mxCell id="5mCAxWr-95BhsiWNWuK7-4" value="o_kmh" style="shape=partialRectangle;html=1;whiteSpace=wrap;connectable=0;overflow=hidden;fillColor=none;top=0;left=0;bottom=0;right=0;" vertex="1" parent="5mCAxWr-95BhsiWNWuK7-1">
          <mxGeometry x="365" width="183" height="50" as="geometry" />
        </mxCell>
        <mxCell id="5mCAxWr-95BhsiWNWuK7-5" value="End" style="shape=partialRectangle;html=1;whiteSpace=wrap;connectable=0;overflow=hidden;fillColor=none;top=0;left=0;bottom=0;right=0;" vertex="1" parent="5mCAxWr-95BhsiWNWuK7-1">
          <mxGeometry x="548" width="182" height="50" as="geometry" />
        </mxCell>
        <mxCell id="5mCAxWr-95BhsiWNWuK7-6" value="" style="shape=partialRectangle;html=1;whiteSpace=wrap;collapsible=0;dropTarget=0;pointerEvents=0;fillColor=none;top=0;left=0;bottom=0;right=0;points=[[0,0.5],[1,0.5]];portConstraint=eastwest;" vertex="1" parent="5mCAxWr-95BhsiWNWuK7-0">
          <mxGeometry y="50" width="730" height="50" as="geometry" />
        </mxCell>
        <mxCell id="5mCAxWr-95BhsiWNWuK7-7" value="1" style="shape=partialRectangle;html=1;whiteSpace=wrap;connectable=0;overflow=hidden;fillColor=none;top=0;left=0;bottom=0;right=0;" vertex="1" parent="5mCAxWr-95BhsiWNWuK7-6">
          <mxGeometry width="183" height="50" as="geometry" />
        </mxCell>
        <mxCell id="5mCAxWr-95BhsiWNWuK7-8" value="{5}" style="shape=partialRectangle;html=1;whiteSpace=wrap;connectable=0;overflow=hidden;fillColor=none;top=0;left=0;bottom=0;right=0;" vertex="1" parent="5mCAxWr-95BhsiWNWuK7-6">
          <mxGeometry x="183" width="182" height="50" as="geometry" />
        </mxCell>
        <mxCell id="5mCAxWr-95BhsiWNWuK7-9" value="" style="shape=partialRectangle;html=1;whiteSpace=wrap;connectable=0;overflow=hidden;fillColor=none;top=0;left=0;bottom=0;right=0;" vertex="1" parent="5mCAxWr-95BhsiWNWuK7-6">
          <mxGeometry x="365" width="183" height="50" as="geometry" />
        </mxCell>
        <mxCell id="5mCAxWr-95BhsiWNWuK7-10" value="" style="shape=partialRectangle;html=1;whiteSpace=wrap;connectable=0;overflow=hidden;fillColor=none;top=0;left=0;bottom=0;right=0;" vertex="1" parent="5mCAxWr-95BhsiWNWuK7-6">
          <mxGeometry x="548" width="182" height="50" as="geometry" />
        </mxCell>
        <mxCell id="5mCAxWr-95BhsiWNWuK7-11" value="" style="shape=partialRectangle;html=1;whiteSpace=wrap;collapsible=0;dropTarget=0;pointerEvents=0;fillColor=none;top=0;left=0;bottom=0;right=0;points=[[0,0.5],[1,0.5]];portConstraint=eastwest;" vertex="1" parent="5mCAxWr-95BhsiWNWuK7-0">
          <mxGeometry y="100" width="730" height="50" as="geometry" />
        </mxCell>
        <mxCell id="5mCAxWr-95BhsiWNWuK7-12" value="2" style="shape=partialRectangle;html=1;whiteSpace=wrap;connectable=0;overflow=hidden;fillColor=none;top=0;left=0;bottom=0;right=0;" vertex="1" parent="5mCAxWr-95BhsiWNWuK7-11">
          <mxGeometry width="183" height="50" as="geometry" />
        </mxCell>
        <mxCell id="5mCAxWr-95BhsiWNWuK7-13" value="5" style="shape=partialRectangle;html=1;whiteSpace=wrap;connectable=0;overflow=hidden;fillColor=none;top=0;left=0;bottom=0;right=0;" vertex="1" parent="5mCAxWr-95BhsiWNWuK7-11">
          <mxGeometry x="183" width="182" height="50" as="geometry" />
        </mxCell>
        <mxCell id="5mCAxWr-95BhsiWNWuK7-14" value="= 5 * 3.6 = 18" style="shape=partialRectangle;html=1;whiteSpace=wrap;connectable=0;overflow=hidden;fillColor=none;top=0;left=0;bottom=0;right=0;" vertex="1" parent="5mCAxWr-95BhsiWNWuK7-11">
          <mxGeometry x="365" width="183" height="50" as="geometry" />
        </mxCell>
        <mxCell id="5mCAxWr-95BhsiWNWuK7-15" value="" style="shape=partialRectangle;html=1;whiteSpace=wrap;connectable=0;overflow=hidden;fillColor=none;top=0;left=0;bottom=0;right=0;" vertex="1" parent="5mCAxWr-95BhsiWNWuK7-11">
          <mxGeometry x="548" width="182" height="50" as="geometry" />
        </mxCell>
        <mxCell id="5mCAxWr-95BhsiWNWuK7-16" value="" style="shape=partialRectangle;html=1;whiteSpace=wrap;collapsible=0;dropTarget=0;pointerEvents=0;fillColor=none;top=0;left=0;bottom=0;right=0;points=[[0,0.5],[1,0.5]];portConstraint=eastwest;" vertex="1" parent="5mCAxWr-95BhsiWNWuK7-0">
          <mxGeometry y="150" width="730" height="50" as="geometry" />
        </mxCell>
        <mxCell id="5mCAxWr-95BhsiWNWuK7-17" value="3" style="shape=partialRectangle;html=1;whiteSpace=wrap;connectable=0;overflow=hidden;fillColor=none;top=0;left=0;bottom=0;right=0;" vertex="1" parent="5mCAxWr-95BhsiWNWuK7-16">
          <mxGeometry width="183" height="50" as="geometry" />
        </mxCell>
        <mxCell id="5mCAxWr-95BhsiWNWuK7-18" value="5" style="shape=partialRectangle;html=1;whiteSpace=wrap;connectable=0;overflow=hidden;fillColor=none;top=0;left=0;bottom=0;right=0;" vertex="1" parent="5mCAxWr-95BhsiWNWuK7-16">
          <mxGeometry x="183" width="182" height="50" as="geometry" />
        </mxCell>
        <mxCell id="5mCAxWr-95BhsiWNWuK7-19" value="" style="shape=partialRectangle;html=1;whiteSpace=wrap;connectable=0;overflow=hidden;fillColor=none;top=0;left=0;bottom=0;right=0;" vertex="1" parent="5mCAxWr-95BhsiWNWuK7-16">
          <mxGeometry x="365" width="183" height="50" as="geometry" />
        </mxCell>
        <mxCell id="5mCAxWr-95BhsiWNWuK7-20" value="18" style="shape=partialRectangle;html=1;whiteSpace=wrap;connectable=0;overflow=hidden;fillColor=none;top=0;left=0;bottom=0;right=0;" vertex="1" parent="5mCAxWr-95BhsiWNWuK7-16">
          <mxGeometry x="548" width="182" height="50" as="geometry" />
        </mxCell>
        <mxCell id="e7fPm0CZFGp6FOft-YIP-0" value="= 5 * 3.6 = 18" style="shape=partialRectangle;html=1;whiteSpace=wrap;connectable=0;overflow=hidden;fillColor=none;top=0;left=0;bottom=0;right=0;" vertex="1" parent="P1q2YH49xZLaBKJA2wRL-1">
          <mxGeometry x="425" y="360" width="183" height="50" as="geometry" />
        </mxCell>
      </root>
    </mxGraphModel>
  </diagram>
</mxfile>
